<svg width="302" height="137" viewBox="0 0 302 137" fill="none" xmlns="http://www.w3.org/2000/svg">
<g clip-path="url(#clip0_499_5215)">
<path d="M42.5742 137V129.243C77.3462 129.243 105.617 102.007 105.617 68.5107C105.617 35.0143 77.3252 7.75762 42.5742 7.75762V0.00012207C81.7923 0.00012207 113.691 30.735 113.691 68.4896C113.691 106.244 81.7923 136.979 42.5742 136.979" fill="#EBAB23"/>
<path d="M133.698 59.7209H134.893C136.089 59.7209 136.991 59.5945 137.578 59.3415C137.892 59.1939 138.144 58.9831 138.354 58.6669C138.564 58.3507 138.668 57.9713 138.668 57.5708C138.668 56.7486 138.312 56.1584 137.62 55.8211C137.242 55.6314 136.802 55.5049 136.319 55.4838C135.921 55.4838 135.418 55.4627 134.768 55.4627H133.656V59.742L133.698 59.7209ZM133.698 51.5208H134.684C135.544 51.5208 136.173 51.331 136.592 50.9727C137.012 50.6143 137.242 50.1295 137.242 49.5392C137.242 48.949 137.033 48.4641 136.592 48.1058C136.194 47.7474 135.544 47.5788 134.684 47.5788H133.698V51.5418V51.5208ZM128.287 63.8105V43.5314H136.34C138.291 43.5314 139.738 43.9951 140.724 44.9437C141.709 45.8924 142.213 47.1782 142.213 48.8225C142.213 49.9608 141.961 50.9305 141.458 51.6683C141.122 52.1532 140.619 52.5958 139.927 52.9964C141.269 53.2493 142.234 53.6709 142.821 54.2612C143.723 55.1676 144.184 56.4324 144.184 58.0556C144.184 59.6788 143.618 61.0068 142.485 62.0608C141.206 63.2202 139.36 63.8105 136.97 63.8105H128.287Z" fill="white"/>
<path d="M159.368 48.0004H152.909V51.3732H159.012V55.8422H152.909V59.3626H159.368V63.8105H147.498V43.5314H159.368V48.0004Z" fill="white"/>
<path d="M162.809 63.8105V43.5314H168.219L178.202 55.9476V43.5314H183.613V63.8105H178.202L168.219 51.3943V63.8105H162.809Z" fill="white"/>
<path d="M187.848 63.8105V43.5314H193.279L203.241 55.9476V43.5314H208.673V63.8105H203.241L193.279 51.3943V63.8105H187.848Z" fill="white"/>
<path d="M224.759 48.0004H218.299V51.3732H224.402V55.8422H218.299V59.3626H224.759V63.8105H212.889V43.5314H224.759V48.0004Z" fill="white"/>
<path d="M236.672 48.0004V63.8105H231.261V48.0004H226.836V43.5314H241.16V48.0004H236.672Z" fill="white"/>
<path d="M253.471 48.0004V63.8105H248.06V48.0004H243.635V43.5314H257.959V48.0004H253.471Z" fill="white"/>
<path d="M137.787 76.6058V92.416H132.355V76.6058H127.951V72.1368H142.275V76.6058H137.787Z" fill="white"/>
<path d="M150.077 79.9787H157.899V72.1368H163.31V92.416H157.899V84.0682H150.077V92.416H144.666V72.1368H150.077V79.9787Z" fill="white"/>
<path d="M173.126 81.2228H174.132C175.16 81.2228 175.936 81.0542 176.439 80.6958C176.754 80.4639 177.006 80.1477 177.194 79.7472C177.362 79.4099 177.446 79.0515 177.446 78.7143C177.446 78.2294 177.278 77.7446 176.943 77.2808C176.439 76.5641 175.496 76.2057 174.111 76.2057H173.105V81.2228H173.126ZM178.495 84.1108L185.038 92.4374H178.285L173.126 84.6589V92.4374H167.715V72.1583H176.146C177.802 72.1583 179.124 72.4324 180.088 73.0015C181.116 73.6129 181.892 74.4982 182.416 75.6576C182.836 76.543 183.046 77.4705 183.046 78.4402C183.046 79.5575 182.773 80.6115 182.249 81.5812C181.536 82.8671 180.277 83.7313 178.495 84.1319" fill="white"/>
<path d="M199.089 84.8697L196.844 78.3981L194.559 84.8697H199.089ZM200.557 88.896H193.069L191.643 92.4374H185.918L193.929 72.1583H199.844L207.687 92.4374H201.899L200.557 88.896Z" fill="white"/>
<path d="M223.815 73.2967L221.655 77.4074C220.501 76.5009 219.306 76.0371 218.111 76.0371C217.356 76.0371 216.747 76.2479 216.307 76.6695C215.95 77.0068 215.762 77.3863 215.762 77.8289C215.762 78.2084 215.929 78.5457 216.265 78.8197C216.643 79.1359 217.125 79.3889 217.67 79.5575C218.027 79.684 218.656 79.8526 219.516 80.1056C220.753 80.464 221.676 80.8434 222.305 81.265C223.228 81.8974 223.857 82.6352 224.255 83.4784C224.528 84.0898 224.654 84.8697 224.654 85.7973C224.654 88.1372 223.941 89.8868 222.515 91.0884C220.984 92.3532 218.991 92.9856 216.496 92.9856C214.965 92.9856 213.392 92.6694 211.798 92.0159C210.917 91.6575 210.078 91.2149 209.281 90.6879L211.609 86.4297C213.224 87.7999 214.818 88.4955 216.391 88.4955C217.356 88.4955 218.048 88.2426 218.488 87.7577C218.845 87.3783 219.012 86.9567 219.012 86.4929C219.012 85.8183 218.614 85.2913 217.796 84.8486C217.46 84.68 216.768 84.4481 215.741 84.153C213.748 83.5838 212.427 83.0358 211.777 82.5087C210.665 81.6234 210.12 80.2953 210.12 78.4824C210.12 76.3744 210.833 74.688 212.28 73.4021C213.581 72.2427 215.237 71.6525 217.23 71.6525C219.495 71.6525 221.697 72.2005 223.836 73.2967" fill="white"/>
<path d="M233.506 79.9787H241.308V72.1368H246.74V92.416H241.308V84.0682H233.506V92.416H228.074V72.1368H233.506V79.9787Z" fill="white"/>
<path d="M262.991 76.6058H256.532V79.9787H262.635V84.4477H256.532V87.968H262.991V92.416H251.121V72.1368H262.991V76.6058Z" fill="white"/>
<path d="M272.219 81.2228H273.226C274.254 81.2228 275.03 81.0542 275.533 80.6958C275.848 80.4639 276.099 80.1477 276.288 79.7472C276.456 79.4099 276.54 79.0515 276.54 78.7143C276.54 78.2294 276.372 77.7446 276.036 77.2808C275.533 76.5641 274.589 76.2057 273.205 76.2057H272.198V81.2228H272.219ZM277.588 84.1108L284.132 92.4374H277.379L272.219 84.6589V92.4374H266.809V72.1583H275.239C276.896 72.1583 278.217 72.4324 279.182 73.0015C280.21 73.6129 280.986 74.4982 281.51 75.6576C281.93 76.543 282.139 77.4705 282.139 78.4402C282.139 79.5575 281.867 80.6115 281.342 81.5812C280.629 82.8671 279.371 83.7313 277.588 84.1319" fill="white"/>
<path d="M287.991 72.5782V81.3265H290.696V82.3384H286.9V72.5782H287.991Z" fill="#EBAB23"/>
<path d="M293.002 72.5782V81.3265H295.708V82.3384H291.891V72.5782H293.002Z" fill="#EBAB23"/>
<path d="M297.932 77.0687H298.834C299.526 77.0687 300.05 76.9001 300.407 76.5839C300.763 76.2677 300.931 75.8461 300.931 75.298C300.931 74.7499 300.742 74.3283 300.386 74.0121C300.029 73.717 299.484 73.5694 298.75 73.5694H297.932V77.0476V77.0687ZM297.932 78.0806V82.3599H296.82V72.5997H298.603C299.379 72.5997 299.987 72.6841 300.407 72.8738C300.994 73.1267 301.434 73.5483 301.707 74.1175C301.896 74.4969 301.979 74.9186 301.979 75.3402C301.979 75.8672 301.854 76.352 301.581 76.7947C301.078 77.659 300.176 78.0806 298.855 78.0806H297.89H297.932Z" fill="#EBAB23"/>
<path d="M13.1286 82.4868H14.8064C18.6862 82.4868 25.2506 82.6765 25.2506 77.3222C25.2506 71.4408 18.7492 72.0311 14.4708 72.0311H13.1286V82.4868ZM13.1286 62.6082H14.5967C18.0781 62.6082 21.7062 62.018 21.7062 57.8863C21.7062 53.4383 17.6167 53.1854 14.0724 53.1854H13.1286V62.6082ZM0 92.1626V43.4885H18.7701C27.7462 43.4885 33.7862 46.8403 33.7862 56.1366C33.7862 60.5213 32.3182 64.0838 28.2286 66.0654V66.1919C35.464 67.0983 38.5469 71.7992 38.5469 78.587C38.5469 88.7898 29.5079 92.1415 20.2592 92.1415H0V92.1626Z" fill="white"/>
<path d="M66.5235 92.1626H53.3739V54.2183H42.5312V43.4885H77.3661V54.2183H66.5235V92.1626Z" fill="white"/>
</g>
<defs>
<clipPath id="clip0_499_5215">
<rect width="302" height="137" fill="white"/>
</clipPath>
</defs>
</svg>
